<?xml version="1.0" standalone="no"?>
<!DOCTYPE svg PUBLIC "-//W3C//DTD SVG 20010904//EN"
 "http://www.w3.org/TR/2001/REC-SVG-20010904/DTD/svg10.dtd">
<svg version="1.0" xmlns="http://www.w3.org/2000/svg"
 width="2048.000000pt" height="2048.000000pt" viewBox="0 0 2048.000000 2048.000000"
 preserveAspectRatio="xMidYMid meet">
<metadata>
Created by potrace 1.16, written by Peter Selinger 2001-2019
</metadata>
<g transform="translate(0.000000,2048.000000) scale(0.100000,-0.100000)"
fill="#ffffff" stroke="none">
<path d="M9945 16229 c-140 -14 -268 -30 -320 -40 -169 -31 -302 -61 -395 -88
-19 -5 -51 -14 -70 -19 -67 -19 -248 -83 -360 -128 -153 -61 -515 -257 -658
-356 -77 -52 -271 -196 -294 -218 -9 -8 -41 -35 -71 -60 -120 -98 -428 -420
-527 -550 -19 -25 -37 -47 -40 -50 -16 -15 -108 -149 -118 -173 -37 -87 5
-200 96 -258 38 -24 57 -29 108 -29 104 0 133 19 237 160 39 52 74 97 77 100
3 3 25 30 50 60 210 259 533 541 817 712 114 70 367 203 428 226 17 6 53 20
80 31 398 154 658 212 1073 242 223 16 451 3 747 -42 39 -6 88 -14 110 -19 22
-5 65 -14 95 -21 30 -6 66 -15 80 -19 14 -4 45 -13 70 -20 165 -47 420 -146
555 -217 172 -90 233 -126 370 -217 342 -227 596 -469 859 -816 104 -137 135
-160 224 -160 161 0 269 137 221 281 -36 106 -488 621 -680 774 -28 22 -56 45
-62 50 -344 300 -902 597 -1357 725 -25 7 -56 16 -70 20 -99 32 -365 83 -515
100 -49 5 -128 14 -174 20 -98 12 -469 11 -586 -1z"/>
<path d="M9995 15284 c-205 -11 -488 -67 -710 -139 -297 -97 -547 -218 -825
-400 -41 -27 -248 -182 -260 -195 -3 -3 -43 -39 -90 -80 -96 -85 -191 -180
-288 -290 -37 -41 -75 -84 -85 -95 -31 -34 -248 -324 -327 -435 -40 -58 -99
-141 -130 -185 -31 -44 -98 -141 -148 -216 -50 -74 -97 -140 -104 -146 -7 -6
-30 -13 -50 -17 -50 -9 -135 -88 -170 -157 -63 -122 -76 -287 -30 -376 73
-142 268 -151 378 -17 40 49 160 214 291 399 38 55 84 120 102 145 17 25 71
104 120 175 105 154 312 434 414 559 95 117 277 300 402 405 83 69 324 241
339 241 2 0 33 17 67 38 140 84 371 181 549 232 43 12 59 16 145 39 305 81
785 98 1115 41 171 -30 281 -57 405 -98 94 -31 141 -50 275 -108 154 -67 376
-201 530 -321 195 -151 385 -343 557 -564 127 -164 215 -286 469 -654 115
-166 238 -339 334 -468 58 -78 87 -108 125 -129 111 -61 255 -15 306 97 23 49
25 185 5 261 -28 107 -125 237 -185 250 -57 12 -77 27 -110 77 -40 61 -355
515 -418 602 -211 290 -454 566 -658 745 -438 386 -1023 664 -1575 750 -36 5
-94 15 -130 21 -64 10 -516 20 -635 13z"/>
<path d="M10025 14325 c-66 -7 -136 -16 -155 -19 -105 -20 -165 -33 -285 -66
-103 -28 -251 -85 -368 -142 -43 -21 -79 -38 -82 -38 -8 0 -177 -101 -237
-141 -225 -153 -464 -384 -618 -597 -52 -73 -105 -151 -119 -174 -13 -24 -33
-59 -44 -78 -128 -223 -233 -513 -286 -790 -5 -30 -15 -82 -22 -115 -22 -117
-33 -1372 -13 -1534 8 -63 88 -143 162 -160 102 -25 213 32 261 134 21 44 21
53 21 727 0 422 4 714 10 763 64 480 276 909 612 1234 273 264 616 446 978
520 30 6 82 16 115 23 83 16 471 16 560 0 39 -7 95 -18 125 -23 80 -15 233
-61 330 -99 375 -148 701 -422 935 -785 56 -87 132 -227 154 -283 76 -196 97
-262 130 -414 36 -161 36 -173 36 -1798 0 -1689 2 -1619 -47 -1840 -101 -459
-367 -887 -734 -1182 -118 -95 -343 -229 -469 -278 -163 -65 -238 -86 -430
-122 -94 -18 -514 -17 -610 0 -199 37 -369 90 -521 161 -97 47 -287 165 -369
230 -75 60 -207 196 -266 274 -67 89 -159 268 -159 310 0 49 -32 128 -65 161
-122 122 -302 90 -379 -67 -58 -118 -222 -286 -397 -405 -65 -44 -201 -113
-293 -147 -94 -36 -137 -70 -165 -130 -43 -92 -21 -201 54 -263 73 -60 154
-66 260 -22 11 5 40 17 65 27 193 79 427 227 575 365 22 21 45 38 51 38 5 0
30 -28 54 -62 93 -134 248 -302 375 -408 195 -163 506 -333 735 -402 236 -72
366 -98 594 -119 203 -19 531 12 749 71 83 23 105 29 162 48 168 57 258 97
410 182 89 50 230 145 315 213 84 67 315 295 377 372 87 107 235 343 299 473
72 150 73 151 103 235 47 128 59 164 71 207 7 25 16 56 20 70 5 14 11 41 15
60 4 19 11 53 16 75 16 70 29 156 44 295 13 113 15 374 15 1599 0 926 -4 1498
-10 1555 -24 216 -59 388 -109 545 -32 97 -116 311 -141 356 -9 17 -36 66 -60
110 -109 200 -245 380 -425 561 -147 148 -240 227 -365 310 -354 236 -743 369
-1183 404 -152 12 -203 11 -362 -5z"/>
<path d="M10060 13365 c-104 -15 -159 -27 -265 -60 -54 -18 -178 -66 -190 -76
-5 -4 -37 -22 -70 -40 -194 -105 -380 -277 -513 -476 -49 -72 -162 -294 -162
-316 0 -9 -4 -18 -9 -21 -5 -3 -11 -16 -14 -28 -3 -13 -15 -59 -26 -103 -52
-201 -51 -152 -51 -1781 0 -1569 0 -1556 42 -1734 104 -439 383 -809 758
-1007 230 -121 416 -168 675 -168 192 0 300 16 460 70 88 29 214 88 272 127
23 15 44 28 47 28 3 0 41 27 83 59 99 76 236 214 308 311 66 88 180 313 214
420 13 41 27 86 31 100 12 37 27 105 42 190 19 109 19 3107 0 3225 -93 566
-476 1037 -987 1210 -106 37 -175 52 -310 70 -128 17 -216 17 -335 0z m415
-459 c95 -27 150 -48 230 -88 219 -109 419 -343 497 -583 61 -185 58 -89 58
-1760 0 -1652 1 -1594 -54 -1760 -60 -179 -138 -305 -268 -431 -115 -113 -173
-150 -363 -235 -70 -31 -196 -51 -330 -51 -236 -1 -392 46 -580 172 -175 119
-355 365 -406 558 -5 17 -14 49 -19 70 -33 118 -35 257 -29 1767 l5 1500 26
85 c47 156 83 233 166 350 54 77 159 183 240 243 107 79 300 160 422 178 80
11 346 2 405 -15z"/>
<path d="M6929 11937 c-41 -25 -78 -67 -98 -112 -11 -25 -13 -257 -12 -1300
l2 -1270 25 -42 c42 -73 111 -113 194 -113 88 0 158 49 199 140 20 44 21 60
21 1303 0 1217 -1 1259 -19 1295 -22 42 -50 70 -101 101 -50 30 -160 29 -211
-2z"/>
<path d="M13319 11932 c-51 -33 -69 -52 -98 -105 l-21 -38 0 -1387 c0 -1492
-1 -1535 -51 -1827 -33 -189 -127 -512 -180 -617 -5 -10 -9 -22 -9 -28 0 -17
-159 -338 -208 -420 -24 -41 -61 -100 -82 -130 -60 -88 -70 -114 -70 -180 0
-97 40 -158 130 -199 52 -24 86 -26 144 -9 64 18 99 50 169 155 172 259 298
516 392 793 67 203 67 203 109 365 23 88 50 225 65 330 6 39 16 99 23 135 16
89 24 2979 8 3040 -34 127 -209 193 -321 122z"/>
<path d="M7970 10010 c-8 -5 -25 -10 -38 -10 -33 0 -126 -96 -137 -140 -5 -19
-9 -152 -10 -295 -1 -266 -3 -287 -47 -435 -32 -108 -111 -259 -182 -345 -62
-76 -188 -188 -245 -216 -14 -8 -46 -25 -71 -39 -25 -14 -76 -36 -115 -49
-142 -47 -174 -70 -209 -155 -47 -112 12 -241 130 -286 70 -26 74 -26 185 11
304 100 564 294 736 549 86 128 168 302 203 430 7 25 16 56 21 70 8 25 20 103
39 243 5 43 10 167 10 276 0 214 -6 251 -55 315 -40 52 -178 101 -215 76z"/>
<path d="M8147 6796 c-121 -44 -180 -177 -128 -291 29 -65 186 -196 421 -352
143 -95 387 -227 510 -277 25 -9 54 -21 65 -26 109 -45 294 -104 435 -138 185
-45 212 -50 465 -83 117 -16 585 -16 695 -1 139 20 223 33 265 42 22 5 67 14
100 20 141 29 399 113 545 177 107 47 324 157 385 193 201 122 402 266 452
324 91 103 55 273 -71 332 -93 44 -162 28 -281 -62 -89 -67 -242 -174 -250
-174 -4 0 -19 -8 -33 -19 -66 -47 -338 -177 -492 -236 -192 -73 -395 -122
-620 -150 -135 -17 -561 -20 -677 -5 -165 22 -273 41 -373 67 -30 8 -71 18
-90 23 -197 44 -566 211 -780 353 -67 44 -119 83 -322 238 -77 60 -142 73
-221 45z"/>
</g>
</svg>
